<svg xmlns="http://www.w3.org/2000/svg" viewBox="0 0 500 500"><defs/><g fill="#F8AAEE" fill-rule="evenodd" opacity=".15"><circle cx="19" cy="19" r="19"/><circle cx="19" cy="250" r="19"/><circle cx="19" cy="135" r="19"/><circle cx="19" cy="365" r="19"/><circle cx="19" cy="481" r="19"/><circle cx="135" cy="19" r="19"/><circle cx="135" cy="250" r="19"/><circle cx="135" cy="135" r="19"/><circle cx="135" cy="365" r="19"/><circle cx="135" cy="481" r="19"/><circle cx="481" cy="19" r="19"/><circle cx="250" cy="250" r="19"/><circle cx="250" cy="135" r="19"/><circle cx="250" cy="365" r="19"/><circle cx="250" cy="481" r="19"/><circle cx="250" cy="19" r="19"/><circle cx="365" cy="250" r="19"/><circle cx="365" cy="135" r="19"/><circle cx="365" cy="365" r="19"/><circle cx="365" cy="481" r="19"/><circle cx="481" cy="481" r="19"/><circle cx="365" cy="19" r="19"/><circle cx="481" cy="250" r="19"/><circle cx="481" cy="135" r="19"/><circle cx="481" cy="365" r="19"/></g></svg>