<svg xmlns="http://www.w3.org/2000/svg">
  
  <symbol id="icon-arrow" viewBox="0 0 512 512">
    <path
      d="M506.134,241.843c-0.006-0.006-0.011-0.013-0.018-0.019l-104.504-104c-7.829-7.791-20.492-7.762-28.285,0.068
			c-7.792,7.829-7.762,20.492,0.067,28.284L443.558,236H20c-11.046,0-20,8.954-20,20c0,11.046,8.954,20,20,20h423.557
			l-70.162,69.824c-7.829,7.792-7.859,20.455-0.067,28.284c7.793,7.831,20.457,7.858,28.285,0.068l104.504-104
			c0.006-0.006,0.011-0.013,0.018-0.019C513.968,262.339,513.943,249.635,506.134,241.843z"
    />
  </symbol>

  <symbol id="icon-menu" viewBox="0 0 512 512">
    <path
      d="M492,236H20c-11.046,0-20,8.954-20,20c0,11.046,8.954,20,20,20h472c11.046,0,20-8.954,20-20S503.046,236,492,236z"
    />
    <path
      d="M492,76H20C8.954,76,0,84.954,0,96s8.954,20,20,20h472c11.046,0,20-8.954,20-20S503.046,76,492,76z"
    />
    <path
      d="M492,396H20c-11.046,0-20,8.954-20,20c0,11.046,8.954,20,20,20h472c11.046,0,20-8.954,20-20
			C512,404.954,503.046,396,492,396z"
    />
  </symbol>

  <symbol id="icon-phone" viewBox="0 0 512 512">
    <path
      d="M489.539,344.684l-55.519-39.657c-21.429-15.304-50.496-12.898-69.116,5.72l-32.533,32.533
			c-41.692-29.544-134.086-121.926-163.655-163.652l32.533-32.532c18.622-18.622,21.027-47.689,5.721-69.116l-39.656-55.518
			c-19.25-26.948-58.135-30.204-81.59-6.752L34.5,66.934c-46.034,46.033-45.997,108.331,0.103,170.922
			c73.112,99.265,140.273,166.425,239.54,239.537c57.895,42.641,121.547,49.48,170.923,0.104l51.225-51.224
			C519.709,402.854,516.525,363.959,489.539,344.684z M468.012,397.99l-51.225,51.224c-35.523,35.524-78.624,25.657-118.925-4.025
			c-95.751-70.522-160.533-135.303-231.055-231.051c-29.671-40.286-39.559-83.391-4.026-118.923l51.226-51.225
			c5.986-5.986,15.865-5.138,20.762,1.719l39.657,55.518c3.895,5.453,3.282,12.849-1.456,17.587l-43.294,43.292
			c-5.454,5.455-7.285,13.559-4.706,20.829c13.791,38.861,165.273,190.316,204.096,204.092c7.269,2.582,15.374,0.749,20.828-4.706
			l43.293-43.292c4.739-4.737,12.137-5.35,17.588-1.456l55.519,39.656C473.166,382.137,473.98,392.022,468.012,397.99z"
    />
  </symbol>

  <symbol id="icon-check" viewBox="0 0 511.999 511.999">
    <path
      d="M505.983,60.701c-7.897-7.722-20.559-7.582-28.282,0.316L138,408.394L34.3,302.35c-7.722-7.898-20.387-8.038-28.283-0.316
          c-7.897,7.722-8.039,20.385-0.316,28.282l117.998,120.665c3.699,3.788,8.821,6.019,14.294,6.019
          c5.223,0,10.415-2.038,14.305-6.017l354-362C514.022,81.086,513.88,68.424,505.983,60.701z"
    />
  </symbol>
</svg>
