<?xml version="1.0" standalone="no"?>
<!DOCTYPE svg PUBLIC "-//W3C//DTD SVG 20010904//EN"
 "http://www.w3.org/TR/2001/REC-SVG-20010904/DTD/svg10.dtd">
<svg version="1.0" xmlns="http://www.w3.org/2000/svg"
 width="128.000000pt" height="128.000000pt" viewBox="0 0 128.000000 128.000000"
 preserveAspectRatio="xMidYMid meet">
<metadata>
Created by potrace 1.14, written by Peter Selinger 2001-2017
</metadata>
<g transform="translate(0.000000,128.000000) scale(0.100000,-0.100000)"
fill="#000000" stroke="none">
<path d="M567 1273 c-2 -5 -7 -20 -10 -34 -14 -59 -69 -102 -141 -112 -39 -5
-75 -36 -76 -65 0 -9 -13 -13 -42 -12 -24 1 -100 1 -170 1 l-128 -1 0 -35 c0
-29 4 -35 23 -36 12 0 88 -1 170 -1 l147 0 0 -24 c0 -33 -1 -29 15 -74 8 -22
25 -56 39 -77 15 -21 26 -40 26 -44 0 -3 -28 -7 -62 -8 -92 -3 -145 -32 -184
-104 -57 -105 18 -248 138 -265 l39 -5 -6 -73 c-7 -73 -7 -74 16 -75 13 0 72
0 132 1 59 1 107 -3 108 -7 0 -4 0 -30 1 -58 1 -98 7 -91 -74 -90 l-73 0 -3
-37 -3 -38 191 0 191 0 -3 38 -3 37 -72 0 -73 0 0 75 0 75 128 0 127 0 -2 76
-2 77 157 0 c86 0 165 1 175 1 13 1 17 10 17 39 l0 37 -188 -1 -187 -2 -36 62
c-39 65 -54 114 -45 143 5 15 19 18 85 20 49 1 90 7 109 17 106 55 141 177 77
273 -28 44 -89 83 -129 83 -16 0 -26 6 -26 14 0 29 -36 58 -85 67 -27 5 -59
16 -72 25 -30 19 -63 72 -63 102 0 21 -4 22 -74 22 -41 0 -77 -3 -79 -7z m446
-329 c15 -14 29 -41 33 -59 7 -40 -17 -97 -50 -114 -24 -13 -129 -24 -124 -13
2 4 15 30 31 59 28 54 35 78 36 126 1 22 6 27 25 27 13 0 35 -12 49 -26z
m-548 -299 c1 -37 -10 -63 -55 -138 -35 -57 -36 -58 -73 -52 -48 7 -80 28 -95
61 -32 68 1 133 78 157 8 3 44 4 80 3 l65 -1 0 -30z"/>
</g>
</svg>
